<svg id="Слой_1" data-name="Слой 1" xmlns="http://www.w3.org/2000/svg" viewBox="0 0 229 118.5"><defs><style>.cls-1,.cls-2{fill:#de584f;}.cls-2,.cls-5{stroke:#fff;}.cls-2,.cls-3,.cls-5{stroke-miterlimit:10;}.cls-2,.cls-3{stroke-width:2px;}.cls-3,.cls-4{fill:#fff;}.cls-3{stroke:#de584f;}.cls-5{fill:none;stroke-width:4px;}</style></defs><title>airplaneticketsbooking1</title><rect class="cls-1" width="229" height="118.5"/><rect class="cls-2" x="76.24" y="44.35" width="36.32" height="26.67"/><rect class="cls-3" x="112.56" y="44.35" width="36.32" height="26.67"/><polygon class="cls-4" points="98.11 46.82 98.11 49.22 91.79 49.22 91.79 68.42 88.75 68.42 88.75 49.22 82.43 49.22 82.43 46.82 98.11 46.82"/><path class="cls-1" d="M274.09,221.38a6.05,6.05,0,0,1-6,6h-7.69V205.69h7.88a4.89,4.89,0,0,1,4.88,4.88,4.87,4.87,0,0,1-4.19,4.82A6,6,0,0,1,274.09,221.38Z" transform="translate(-132.3 -158.88)"/><path class="cls-4" d="M271.25,221.6a4.11,4.11,0,0,1-4.11,4.1H263.2V217.5h3.95A4.11,4.11,0,0,1,271.25,221.6Z" transform="translate(-132.3 -158.88)"/><path class="cls-4" d="M270.44,211.14a3.58,3.58,0,0,1-3.58,3.58H263.2v-7.16h3.66A3.59,3.59,0,0,1,270.44,211.14Z" transform="translate(-132.3 -158.88)"/><path class="cls-5" d="M208.54,234.29h72.64c.87-.63,9.24-6.84,9.28-17.73,0-1.38-.14-12.14-9.28-17.79a20.21,20.21,0,0,0-20.82,0" transform="translate(-132.3 -158.88)"/><path class="cls-4" d="M206.49,202.84l.49-.16c.44-.15.55-.19.61-.31a.67.67,0,0,0-.06-.51c-.06-.18-.13-.37-.31-.43s-.15,0-.48.08c.07-.37.14-.75.21-1.15l.45-.14c.44-.15.55-.19.61-.31a.67.67,0,0,0-.06-.51c-.06-.18-.13-.37-.31-.43s-.14,0-.46.07l.24-1.39L211.9,196a2.67,2.67,0,0,0,1.22-.87,2.74,2.74,0,0,0,.54-1.43,2.9,2.9,0,0,0-1.3-.62,2.81,2.81,0,0,0-1.49.13l-4.46,1.65-1.09-.91c.31-.12.36-.18.39-.24a.66.66,0,0,0,0-.53c-.07-.18-.13-.36-.29-.43s-.23,0-.66.16l-.43.18-.91-.74c.33-.13.39-.19.42-.26a.66.66,0,0,0,0-.53c-.07-.18-.13-.36-.29-.43s-.23,0-.66.16l-.48.2c-3.38-2.69-4.48-3.29-4.66-3.1s.66,1.22,3.22,5.19c.68,1,1.24,1.94,1.64,2.58L197.85,198l-3.24-1.4a.85.85,0,0,0-.74.58l2.82,2.69.29.06-.18.23L196.4,204a.85.85,0,0,0,.94,0l1.56-3.17,4.73-1.64c.11.75.26,1.79.43,3,.62,4.68.64,6,.91,6S205.67,207.08,206.49,202.84Z" transform="translate(-132.3 -158.88)"/><rect class="cls-1" x="111.85" y="43.72" width="0.71" height="28.05"/><rect class="cls-4" x="112.79" y="43.93" width="0.66" height="27.92"/><polygon class="cls-4" points="112.23 38.35 112.23 59.04 106.9 58.99 103.65 68.55 99.59 68.55 109.83 38.35 112.23 38.35"/><polygon class="cls-1" points="124.88 68.55 120.77 68.55 117.36 59.09 112.23 59.04 112.23 38.35 114.69 38.35 124.88 68.55"/><polygon class="cls-1" points="112.23 41.58 112.23 55.77 107.65 55.77 112.23 41.58"/><polygon class="cls-4" points="116.82 55.77 112.23 55.77 112.23 41.58 116.82 55.77"/><rect class="cls-4" x="113.45" y="59.07" width="3.75" height="10.93"/></svg>